<svg width="37" height="40" viewBox="0 0 37 40" fill="none" xmlns="http://www.w3.org/2000/svg">
<path d="M19 40L16.4019 35.5H21.5981L19 40Z" fill="black"/>
<circle cx="18.5" cy="18.5" r="17.5" fill="white" stroke="#EED202" stroke-width="2"/>
<path d="M19 28.025C18.7333 28.025 18.4791 27.975 18.2375 27.875C17.9958 27.775 17.775 27.6333 17.575 27.45L9.54998 19.425C9.36664 19.225 9.22498 19.0041 9.12498 18.7625C9.02498 18.5208 8.97498 18.2666 8.97498 18C8.97498 17.7333 9.02498 17.475 9.12498 17.225C9.22498 16.975 9.36664 16.7583 9.54998 16.575L17.575 8.54998C17.775 8.34998 17.9958 8.20414 18.2375 8.11248C18.4791 8.02081 18.7333 7.97498 19 7.97498C19.2666 7.97498 19.525 8.02081 19.775 8.11248C20.025 8.20414 20.2416 8.34998 20.425 8.54998L28.45 16.575C28.65 16.7583 28.7958 16.975 28.8875 17.225C28.9791 17.475 29.025 17.7333 29.025 18C29.025 18.2666 28.9791 18.5208 28.8875 18.7625C28.7958 19.0041 28.65 19.225 28.45 19.425L20.425 27.45C20.2416 27.6333 20.025 27.775 19.775 27.875C19.525 27.975 19.2666 28.025 19 28.025ZM19 26.025L27.025 18L19 9.97498L10.975 18L19 26.025ZM18 19H20V13H18V19ZM19 22C19.2833 22 19.5208 21.9041 19.7125 21.7125C19.9041 21.5208 20 21.2833 20 21C20 20.7166 19.9041 20.4791 19.7125 20.2875C19.5208 20.0958 19.2833 20 19 20C18.7166 20 18.4791 20.0958 18.2875 20.2875C18.0958 20.4791 18 20.7166 18 21C18 21.2833 18.0958 21.5208 18.2875 21.7125C18.4791 21.9041 18.7166 22 19 22Z" fill="#EED202"/>
</svg>
