<svg width="37" height="40" viewBox="0 0 37 40" fill="none" xmlns="http://www.w3.org/2000/svg">
<circle cx="18.5" cy="18.5" r="17.5" fill="white" stroke="black" stroke-width="2"/>
<path d="M28.0469 17.05V25C28.0469 25.55 27.8511 26.0208 27.4594 26.4125C27.0678 26.8042 26.5969 27 26.0469 27H12.0469C11.4969 27 11.0261 26.8042 10.6344 26.4125C10.2428 26.0208 10.0469 25.55 10.0469 25V17.05C9.66361 16.7 9.36777 16.25 9.15944 15.7C8.95111 15.15 8.94694 14.55 9.14694 13.9L10.1969 10.5C10.3303 10.0667 10.5678 9.70833 10.9094 9.425C11.2511 9.14167 11.6469 9 12.0969 9H25.9969C26.4469 9 26.8386 9.1375 27.1719 9.4125C27.5053 9.6875 27.7469 10.05 27.8969 10.5L28.9469 13.9C29.1469 14.55 29.1428 15.1417 28.9344 15.675C28.7261 16.2083 28.4303 16.6667 28.0469 17.05ZM21.2469 16C21.6969 16 22.0386 15.8458 22.2719 15.5375C22.5053 15.2292 22.5969 14.8833 22.5469 14.5L21.9969 11H20.0469V14.7C20.0469 15.05 20.1636 15.3542 20.3969 15.6125C20.6303 15.8708 20.9136 16 21.2469 16ZM16.7469 16C17.1303 16 17.4428 15.8708 17.6844 15.6125C17.9261 15.3542 18.0469 15.05 18.0469 14.7V11H16.0969L15.5469 14.5C15.4803 14.9 15.5678 15.25 15.8094 15.55C16.0511 15.85 16.3636 16 16.7469 16ZM12.2969 16C12.5969 16 12.8594 15.8917 13.0844 15.675C13.3094 15.4583 13.4469 15.1833 13.4969 14.85L14.0469 11H12.0969L11.0969 14.35C10.9969 14.6833 11.0511 15.0417 11.2594 15.425C11.4678 15.8083 11.8136 16 12.2969 16ZM25.7969 16C26.2803 16 26.6303 15.8083 26.8469 15.425C27.0636 15.0417 27.1136 14.6833 26.9969 14.35L25.9469 11H24.0469L24.5969 14.85C24.6469 15.1833 24.7844 15.4583 25.0094 15.675C25.2344 15.8917 25.4969 16 25.7969 16ZM12.0469 25H26.0469V17.95C25.9636 17.9833 25.9094 18 25.8844 18H25.7969C25.3469 18 24.9511 17.925 24.6094 17.775C24.2678 17.625 23.9303 17.3833 23.5969 17.05C23.2969 17.35 22.9553 17.5833 22.5719 17.75C22.1886 17.9167 21.7803 18 21.3469 18C20.8969 18 20.4761 17.9167 20.0844 17.75C19.6928 17.5833 19.3469 17.35 19.0469 17.05C18.7636 17.35 18.4344 17.5833 18.0594 17.75C17.6844 17.9167 17.2803 18 16.8469 18C16.3636 18 15.9261 17.9167 15.5344 17.75C15.1428 17.5833 14.7969 17.35 14.4969 17.05C14.1469 17.4 13.8011 17.6458 13.4594 17.7875C13.1178 17.9292 12.7303 18 12.2969 18H12.1844C12.1428 18 12.0969 17.9833 12.0469 17.95V25Z" fill="black"/>
<path d="M19 40L16.4019 35.5H21.5981L19 40Z" fill="black"/>
</svg>
