<svg width="37" height="41" viewBox="0 0 37 41" fill="none" xmlns="http://www.w3.org/2000/svg">
<circle cx="18.5" cy="18.5" r="17.5" fill="white" stroke="black" stroke-width="2"/>
<path d="M15.6513 29V12.6364H20.8608V29H15.6513ZM18.2614 10.7294C17.5298 10.7294 16.9013 10.4879 16.3757 10.005C15.8501 9.51491 15.5874 8.92543 15.5874 8.23651C15.5874 7.55469 15.8501 6.9723 16.3757 6.48935C16.9013 5.99929 17.5298 5.75426 18.2614 5.75426C19 5.75426 19.6286 5.99929 20.147 6.48935C20.6726 6.9723 20.9354 7.55469 20.9354 8.23651C20.9354 8.92543 20.6726 9.51491 20.147 10.005C19.6286 10.4879 19 10.7294 18.2614 10.7294Z" fill="black"/>
<path d="M19 41L16.4019 36.5H21.5981L19 41Z" fill="black"/>
</svg>
