<svg width="37" height="40" viewBox="0 0 37 40" fill="none" xmlns="http://www.w3.org/2000/svg">
<circle cx="18.5" cy="18.5" r="17.5" fill="white" stroke="black" stroke-width="2"/>
<path d="M19 40L16.4019 35.5H21.5981L19 40Z" fill="black"/>
<path d="M24.15 26.7L18.1 20.6C17.7667 20.7333 17.4292 20.8333 17.0875 20.9C16.7458 20.9667 16.3833 21 16 21C14.3333 21 12.9167 20.4167 11.75 19.25C10.5833 18.0833 10 16.6667 10 15C10 14.4 10.0833 13.8292 10.25 13.2875C10.4167 12.7458 10.65 12.2333 10.95 11.75L14.6 15.4L16.4 13.6L12.75 9.95C13.2333 9.65 13.7458 9.41667 14.2875 9.25C14.8292 9.08333 15.4 9 16 9C17.6667 9 19.0833 9.58333 20.25 10.75C21.4167 11.9167 22 13.3333 22 15C22 15.3833 21.9667 15.7458 21.9 16.0875C21.8333 16.4292 21.7333 16.7667 21.6 17.1L27.7 23.15C27.9 23.35 28 23.5917 28 23.875C28 24.1583 27.9 24.4 27.7 24.6L25.6 26.7C25.4 26.9 25.1583 27 24.875 27C24.5917 27 24.35 26.9 24.15 26.7ZM24.875 24.575L25.55 23.9L19.15 17.5C19.45 17.1667 19.6667 16.7792 19.8 16.3375C19.9333 15.8958 20 15.45 20 15C20 14 19.6792 13.1292 19.0375 12.3875C18.3958 11.6458 17.6 11.2 16.65 11.05L18.5 12.9C18.7 13.1 18.8 13.3333 18.8 13.6C18.8 13.8667 18.7 14.1 18.5 14.3L15.3 17.5C15.1 17.7 14.8667 17.8 14.6 17.8C14.3333 17.8 14.1 17.7 13.9 17.5L12.05 15.65C12.2 16.6 12.6458 17.3958 13.3875 18.0375C14.1292 18.6792 15 19 16 19C16.4333 19 16.8667 18.9333 17.3 18.8C17.7333 18.6667 18.125 18.4583 18.475 18.175L24.875 24.575Z" fill="black"/>
</svg>
