<svg width="37" height="40" viewBox="0 0 37 40" fill="none" xmlns="http://www.w3.org/2000/svg">
<circle cx="18.5" cy="18.5" r="17.5" fill="white" stroke="black" stroke-width="2"/>
<path d="M19 40L16.4019 35.5H21.5981L19 40Z" fill="black"/>
<path d="M16 10V8H22V10H16ZM18 21H20V15H18V21ZM19 29C17.7667 29 16.6042 28.7625 15.5125 28.2875C14.4208 27.8125 13.4667 27.1667 12.65 26.35C11.8333 25.5333 11.1875 24.5792 10.7125 23.4875C10.2375 22.3958 10 21.2333 10 20C10 18.7667 10.2375 17.6042 10.7125 16.5125C11.1875 15.4208 11.8333 14.4667 12.65 13.65C13.4667 12.8333 14.4208 12.1875 15.5125 11.7125C16.6042 11.2375 17.7667 11 19 11C20.0333 11 21.025 11.1667 21.975 11.5C22.925 11.8333 23.8167 12.3167 24.65 12.95L26.05 11.55L27.45 12.95L26.05 14.35C26.6833 15.1833 27.1667 16.075 27.5 17.025C27.8333 17.975 28 18.9667 28 20C28 21.2333 27.7625 22.3958 27.2875 23.4875C26.8125 24.5792 26.1667 25.5333 25.35 26.35C24.5333 27.1667 23.5792 27.8125 22.4875 28.2875C21.3958 28.7625 20.2333 29 19 29ZM19 27C20.9333 27 22.5833 26.3167 23.95 24.95C25.3167 23.5833 26 21.9333 26 20C26 18.0667 25.3167 16.4167 23.95 15.05C22.5833 13.6833 20.9333 13 19 13C17.0667 13 15.4167 13.6833 14.05 15.05C12.6833 16.4167 12 18.0667 12 20C12 21.9333 12.6833 23.5833 14.05 24.95C15.4167 26.3167 17.0667 27 19 27Z" fill="black"/>
</svg>
